<svg width="477" height="118" viewBox="0 0 477 118" fill="none" xmlns="http://www.w3.org/2000/svg">
<path d="M0.429688 3.875V2.1875H25.7422V3.875H0.429688ZM0.429688 7.25V5.5625H25.7422V7.25H0.429688ZM0.429688 10.625V8.9375H25.7422V10.625H18.9922V41H17.3047V10.625H15.6172V41H13.9297V10.625H12.2422V41H10.5547V10.625H8.86719V41H7.17969V10.625H0.429688ZM38.0234 41H36.3359V2.1875H38.0234V41ZM34.6484 41H32.9609V2.1875H34.6484V41ZM31.2734 41H29.5859V2.1875H31.2734V41ZM41.3984 32.5625H59.3516V34.25H41.3984V35.9375H59.3516V37.625H41.3984V39.3125H59.3516V41H39.7109V2.1875H59.3516V3.875H41.3984V5.5625H59.3516V7.25H41.3984V8.9375H59.3516V10.625H41.3984V17.375H50.6094V19.0625H41.3984V20.75H50.6094V22.4375H41.3984V24.125H50.6094V25.8125H41.3984V32.5625ZM92.8203 15.4531L91.4375 16.3672C90.5938 15.1172 89.4922 14.1328 88.1328 13.4141C86.7891 12.6797 85.3281 12.3125 83.75 12.3125C81.1875 12.3125 79 13.2188 77.1875 15.0312C75.375 16.8438 74.4688 19.0312 74.4688 21.5938C74.4688 24.1562 75.375 26.3438 77.1875 28.1562C79 29.9688 81.1875 30.875 83.75 30.875C85.3281 30.875 86.7891 30.5078 88.1328 29.7734C89.4922 29.0391 90.5938 28.0469 91.4375 26.7969L92.7969 27.7812C91.7969 29.25 90.5 30.4141 88.9062 31.2734C87.3125 32.1328 85.5938 32.5625 83.75 32.5625C82.2656 32.5625 80.8438 32.2734 79.4844 31.6953C78.1406 31.1172 76.9766 30.3359 75.9922 29.3516C75.0078 28.3672 74.2266 27.2031 73.6484 25.8594C73.0703 24.5 72.7812 23.0781 72.7812 21.5938C72.7812 20.1094 73.0703 18.6953 73.6484 17.3516C74.2266 15.9922 75.0078 14.8203 75.9922 13.8359C76.9766 12.8516 78.1406 12.0703 79.4844 11.4922C80.8438 10.9141 82.2656 10.625 83.75 10.625C85.6094 10.625 87.3359 11.0625 88.9297 11.9375C90.5234 12.7969 91.8203 13.9688 92.8203 15.4531ZM95.6094 13.5312L94.2031 14.4453C93.0469 12.7578 91.5469 11.4219 89.7031 10.4375C87.875 9.4375 85.8906 8.9375 83.75 8.9375C81.4531 8.9375 79.3359 9.50781 77.3984 10.6484C75.4609 11.7734 73.9219 13.3047 72.7812 15.2422C71.6562 17.1797 71.0938 19.2969 71.0938 21.5938C71.0938 23.8906 71.6562 26.0078 72.7812 27.9453C73.9219 29.8828 75.4609 31.4219 77.3984 32.5625C79.3359 33.6875 81.4531 34.25 83.75 34.25C85.8906 34.25 87.8828 33.75 89.7266 32.75C91.5703 31.75 93.0703 30.3984 94.2266 28.6953L95.6094 29.6562C94.2969 31.5938 92.5938 33.125 90.5 34.25C88.4219 35.375 86.1719 35.9375 83.75 35.9375C81.1562 35.9375 78.7578 35.2969 76.5547 34.0156C74.3516 32.7344 72.6094 30.9922 71.3281 28.7891C70.0469 26.5859 69.4062 24.1875 69.4062 21.5938C69.4062 19 70.0469 16.6016 71.3281 14.3984C72.6094 12.1953 74.3516 10.4531 76.5547 9.17188C78.7578 7.89062 81.1562 7.25 83.75 7.25C86.1719 7.25 88.4219 7.8125 90.5 8.9375C92.5938 10.0625 94.2969 11.5938 95.6094 13.5312ZM98.4219 11.6562L97.0156 12.5703C95.5469 10.4141 93.6406 8.71094 91.2969 7.46094C88.9688 6.19531 86.4531 5.5625 83.75 5.5625C81.5781 5.5625 79.5 5.98438 77.5156 6.82812C75.5312 7.67188 73.8203 8.8125 72.3828 10.25C70.9609 11.6719 69.8281 13.375 68.9844 15.3594C68.1406 17.3438 67.7188 19.4219 67.7188 21.5938C67.7188 23.7656 68.1406 25.8438 68.9844 27.8281C69.8281 29.8125 70.9609 31.5234 72.3828 32.9609C73.8203 34.3828 75.5312 35.5156 77.5156 36.3594C79.5 37.2031 81.5781 37.625 83.75 37.625C86.4688 37.625 88.9922 36.9922 91.3203 35.7266C93.6484 34.4609 95.5469 32.75 97.0156 30.5938L98.375 31.6016C96.75 33.9766 94.6484 35.8594 92.0703 37.25C89.5078 38.625 86.7344 39.3125 83.75 39.3125C80.5469 39.3125 77.5859 38.5234 74.8672 36.9453C72.1484 35.3516 69.9922 33.1953 68.3984 30.4766C66.8203 27.7578 66.0312 24.7969 66.0312 21.5938C66.0312 18.3906 66.8203 15.4297 68.3984 12.7109C69.9922 9.99219 72.1484 7.84375 74.8672 6.26562C77.5859 4.67188 80.5469 3.875 83.75 3.875C86.75 3.875 89.5391 4.57812 92.1172 5.98438C94.6953 7.375 96.7969 9.26562 98.4219 11.6562ZM101.188 9.73438L99.7812 10.6484C98 8.03906 95.6953 5.97656 92.8672 4.46094C90.0547 2.94531 87.0156 2.1875 83.75 2.1875C81.125 2.1875 78.6094 2.70312 76.2031 3.73438C73.8125 4.75 71.75 6.125 70.0156 7.85938C68.2812 9.59375 66.8984 11.6641 65.8672 14.0703C64.8516 16.4609 64.3438 18.9688 64.3438 21.5938C64.3438 24.2188 64.8516 26.7344 65.8672 29.1406C66.8984 31.5312 68.2812 33.5938 70.0156 35.3281C71.75 37.0625 73.8125 38.4453 76.2031 39.4766C78.6094 40.4922 81.125 41 83.75 41C87.0156 41 90.0625 40.2344 92.8906 38.7031C95.7188 37.1719 98.0234 35.1016 99.8047 32.4922L101.164 33.5234C99.2266 36.3359 96.7266 38.5703 93.6641 40.2266C90.6016 41.8672 87.2969 42.6875 83.75 42.6875C80.8906 42.6875 78.1562 42.125 75.5469 41C72.9531 39.8906 70.7109 38.3984 68.8203 36.5234C66.9453 34.6328 65.4453 32.3906 64.3203 29.7969C63.2109 27.1875 62.6562 24.4531 62.6562 21.5938C62.6562 18.7344 63.2109 16.0078 64.3203 13.4141C65.4453 10.8047 66.9453 8.5625 68.8203 6.6875C70.7109 4.79688 72.9531 3.29688 75.5469 2.1875C78.1562 1.0625 80.8906 0.5 83.75 0.5C87.3125 0.5 90.625 1.32812 93.6875 2.98438C96.75 4.64062 99.25 6.89062 101.188 9.73438ZM141.57 2.1875H143.258V41H141.57V2.1875ZM104.445 2.1875H106.133V41H104.445V2.1875ZM138.195 2.1875H139.883V41H138.195V2.1875ZM134.82 2.1875H136.508V41H134.82V2.1875ZM131.445 2.1875H133.133V41H131.445V25.7891H116.258V41H114.57V2.1875H116.258V17.3516H131.445V2.1875ZM111.195 2.1875H112.883V41H111.195V2.1875ZM107.82 2.1875H109.508V41H107.82V2.1875ZM131.445 24.1016V22.4141H116.258V24.1016H131.445ZM131.445 20.7266V19.0391H116.258V20.7266H131.445ZM175.273 22.3203L173.586 19.5312V2.1875H175.273V22.3203ZM178.648 27.8516L176.961 25.0156V2.1875H178.648V27.8516ZM182.023 33.4531L180.336 30.5938V2.1875H182.023V33.4531ZM157.836 20.8672L159.523 23.6562V41H157.836V20.8672ZM154.461 15.3359L156.148 18.1719V41H154.461V15.3359ZM151.086 9.73438L152.773 12.5938V41H151.086V9.73438ZM151.672 2.1875H153.641L177.5 41H175.531L151.672 2.1875ZM155.656 2.1875H157.648L181.484 41H179.469L155.656 2.1875ZM159.617 2.1875H161.586L183.711 38.2578V2.1875H185.398V41C185.398 41 184.734 41 183.406 41L159.617 2.1875ZM149.398 4.92969V41H147.711V2.1875C147.711 2.1875 148.383 2.1875 149.727 2.1875L173.516 41H171.57L149.398 4.92969ZM203.516 15.0312C201.703 16.8438 200.797 19.0312 200.797 21.5938C200.797 24.1562 201.703 26.3438 203.516 28.1562C205.328 29.9688 207.516 30.875 210.078 30.875C212.641 30.875 214.828 29.9688 216.641 28.1562C218.453 26.3438 219.359 24.1562 219.359 21.5938C219.359 19.0312 218.453 16.8438 216.641 15.0312C214.828 13.2188 212.641 12.3125 210.078 12.3125C207.516 12.3125 205.328 13.2188 203.516 15.0312ZM199.977 25.8594C199.398 24.5 199.109 23.0781 199.109 21.5938C199.109 20.1094 199.398 18.6953 199.977 17.3516C200.555 15.9922 201.336 14.8203 202.32 13.8359C203.305 12.8516 204.469 12.0703 205.812 11.4922C207.172 10.9141 208.594 10.625 210.078 10.625C211.562 10.625 212.977 10.9141 214.32 11.4922C215.68 12.0703 216.852 12.8516 217.836 13.8359C218.82 14.8203 219.602 15.9922 220.18 17.3516C220.758 18.6953 221.047 20.1094 221.047 21.5938C221.047 23.0781 220.758 24.5 220.18 25.8594C219.602 27.2031 218.82 28.3672 217.836 29.3516C216.852 30.3359 215.68 31.1172 214.32 31.6953C212.977 32.2734 211.562 32.5625 210.078 32.5625C208.594 32.5625 207.172 32.2734 205.812 31.6953C204.469 31.1172 203.305 30.3359 202.32 29.3516C201.336 28.3672 200.555 27.2031 199.977 25.8594ZM199.109 15.2422C197.984 17.1797 197.422 19.2969 197.422 21.5938C197.422 23.8906 197.984 26.0078 199.109 27.9453C200.25 29.8828 201.789 31.4219 203.727 32.5625C205.664 33.6875 207.781 34.25 210.078 34.25C212.375 34.25 214.492 33.6875 216.43 32.5625C218.367 31.4219 219.898 29.8828 221.023 27.9453C222.164 26.0078 222.734 23.8906 222.734 21.5938C222.734 19.2969 222.164 17.1797 221.023 15.2422C219.898 13.3047 218.367 11.7734 216.43 10.6484C214.492 9.50781 212.375 8.9375 210.078 8.9375C207.781 8.9375 205.664 9.50781 203.727 10.6484C201.789 11.7734 200.25 13.3047 199.109 15.2422ZM197.656 28.7891C196.375 26.5859 195.734 24.1875 195.734 21.5938C195.734 19 196.375 16.6016 197.656 14.3984C198.938 12.1953 200.68 10.4531 202.883 9.17188C205.086 7.89062 207.484 7.25 210.078 7.25C212.672 7.25 215.07 7.89062 217.273 9.17188C219.477 10.4531 221.219 12.1953 222.5 14.3984C223.781 16.6016 224.422 19 224.422 21.5938C224.422 24.1875 223.781 26.5859 222.5 28.7891C221.219 30.9922 219.477 32.7344 217.273 34.0156C215.07 35.2969 212.672 35.9375 210.078 35.9375C207.484 35.9375 205.086 35.2969 202.883 34.0156C200.68 32.7344 198.938 30.9922 197.656 28.7891ZM195.312 15.3594C194.469 17.3438 194.047 19.4219 194.047 21.5938C194.047 23.7656 194.469 25.8438 195.312 27.8281C196.156 29.8125 197.289 31.5234 198.711 32.9609C200.148 34.3828 201.859 35.5156 203.844 36.3594C205.828 37.2031 207.906 37.625 210.078 37.625C212.25 37.625 214.328 37.2031 216.312 36.3594C218.297 35.5156 220 34.3828 221.422 32.9609C222.859 31.5234 224 29.8125 224.844 27.8281C225.688 25.8438 226.109 23.7656 226.109 21.5938C226.109 19.4219 225.688 17.3438 224.844 15.3594C224 13.375 222.859 11.6719 221.422 10.25C220 8.8125 218.297 7.67188 216.312 6.82812C214.328 5.98438 212.25 5.5625 210.078 5.5625C207.906 5.5625 205.828 5.98438 203.844 6.82812C201.859 7.67188 200.148 8.8125 198.711 10.25C197.289 11.6719 196.156 13.375 195.312 15.3594ZM194.727 30.4766C193.148 27.7578 192.359 24.7969 192.359 21.5938C192.359 18.3906 193.148 15.4297 194.727 12.7109C196.32 9.99219 198.477 7.84375 201.195 6.26562C203.914 4.67188 206.875 3.875 210.078 3.875C213.281 3.875 216.242 4.67188 218.961 6.26562C221.68 7.84375 223.828 9.99219 225.406 12.7109C227 15.4297 227.797 18.3906 227.797 21.5938C227.797 24.7969 227 27.7578 225.406 30.4766C223.828 33.1953 221.68 35.3516 218.961 36.9453C216.242 38.5234 213.281 39.3125 210.078 39.3125C206.875 39.3125 203.914 38.5234 201.195 36.9453C198.477 35.3516 196.32 33.1953 194.727 30.4766ZM192.195 14.0703C191.18 16.4609 190.672 18.9688 190.672 21.5938C190.672 24.2188 191.18 26.7344 192.195 29.1406C193.227 31.5312 194.609 33.5938 196.344 35.3281C198.078 37.0625 200.141 38.4453 202.531 39.4766C204.938 40.4922 207.453 41 210.078 41C212.703 41 215.211 40.4922 217.602 39.4766C220.008 38.4453 222.078 37.0625 223.812 35.3281C225.547 33.5938 226.922 31.5312 227.938 29.1406C228.969 26.7344 229.484 24.2188 229.484 21.5938C229.484 18.9688 228.969 16.4609 227.938 14.0703C226.922 11.6641 225.547 9.59375 223.812 7.85938C222.078 6.125 220.008 4.75 217.602 3.73438C215.211 2.70312 212.703 2.1875 210.078 2.1875C207.453 2.1875 204.938 2.70312 202.531 3.73438C200.141 4.75 198.078 6.125 196.344 7.85938C194.609 9.59375 193.227 11.6641 192.195 14.0703ZM190.648 29.7969C189.539 27.1875 188.984 24.4531 188.984 21.5938C188.984 18.7344 189.539 16.0078 190.648 13.4141C191.773 10.8047 193.273 8.5625 195.148 6.6875C197.039 4.79688 199.281 3.29688 201.875 2.1875C204.484 1.0625 207.219 0.5 210.078 0.5C212.938 0.5 215.664 1.0625 218.258 2.1875C220.867 3.29688 223.109 4.79688 224.984 6.6875C226.875 8.5625 228.375 10.8047 229.484 13.4141C230.609 16.0078 231.172 18.7344 231.172 21.5938C231.172 24.4531 230.609 27.1875 229.484 29.7969C228.375 32.3906 226.875 34.6328 224.984 36.5234C223.109 38.3984 220.867 39.8906 218.258 41C215.664 42.125 212.938 42.6875 210.078 42.6875C207.219 42.6875 204.484 42.125 201.875 41C199.281 39.8906 197.039 38.3984 195.148 36.5234C193.273 34.6328 191.773 32.3906 190.648 29.7969ZM262.602 26.8438L264.289 23.6562V41H262.602V26.8438ZM265.977 20.375L267.664 17.1875V41H265.977V20.375ZM269.352 14L271.039 10.7891V41H269.352V14ZM258.031 26.0469L257.07 24.2891L268.695 2.1875H270.594L258.031 26.0469ZM256.086 22.3672L255.102 20.5859L264.852 2.1875H266.773L256.086 22.3672ZM244.789 23.8438L246.477 27.0312V41H244.789V23.8438ZM241.414 17.4219L243.102 20.6094V41H241.414V17.4219ZM238.039 11L239.727 14.2109V41H238.039V11ZM251.68 30.875H249.781L236.352 5.39844V41H234.664V2.1875H236.562L251.68 30.875ZM255.5 30.875H253.578L238.484 2.1875H240.406L255.5 30.875ZM272.727 5.39844L259.297 30.875H257.375L242.305 2.1875H244.203L258.359 29.0938L272.492 2.1875H274.414V41H272.727V5.39844ZM295.625 29.6094L296.305 27.9219H302.07L302.75 29.6094H295.625ZM294.312 32.9844L294.969 31.2969H303.383L304.109 32.9844H294.312ZM293 36.3594L293.656 34.6719H304.719L305.422 36.3594H293ZM279.289 41H277.461L292.812 2.1875H294.641L309.969 41H308.164L293.727 4.46094L279.289 41ZM293.938 8.46875L294.898 10.625L282.898 41H281.094L293.938 8.46875ZM295.812 12.9219L296.703 15.2422L286.555 41H284.727L295.812 12.9219ZM297.594 17.5625L298.484 19.9297L290.164 41H288.359L297.594 17.5625ZM320.867 41H319.039L303.711 2.1875H305.516L320.867 41ZM301.883 2.1875L317.234 41H315.43L300.078 2.1875H301.883ZM298.25 2.1875L313.602 41H311.773L296.445 2.1875H298.25ZM351.383 22.3203L349.695 19.5312V2.1875H351.383V22.3203ZM354.758 27.8516L353.07 25.0156V2.1875H354.758V27.8516ZM358.133 33.4531L356.445 30.5938V2.1875H358.133V33.4531ZM333.945 20.8672L335.633 23.6562V41H333.945V20.8672ZM330.57 15.3359L332.258 18.1719V41H330.57V15.3359ZM327.195 9.73438L328.883 12.5938V41H327.195V9.73438ZM327.781 2.1875H329.75L353.609 41H351.641L327.781 2.1875ZM331.766 2.1875H333.758L357.594 41H355.578L331.766 2.1875ZM335.727 2.1875H337.695L359.82 38.2578V2.1875H361.508V41C361.508 41 360.844 41 359.516 41L335.727 2.1875ZM325.508 4.92969V41H323.82V2.1875C323.82 2.1875 324.492 2.1875 325.836 2.1875L349.625 41H347.68L325.508 4.92969ZM365.211 3.875V2.1875H390.523V3.875H365.211ZM365.211 7.25V5.5625H390.523V7.25H365.211ZM365.211 10.625V8.9375H390.523V10.625H383.773V41H382.086V10.625H380.398V41H378.711V10.625H377.023V41H375.336V10.625H373.648V41H371.961V10.625H365.211ZM407.117 21.6875H417.289C418.836 21.6875 420.141 21.1875 421.203 20.1875C422.281 19.1875 422.82 17.7656 422.82 15.9219C422.82 14.5625 422.258 13.3438 421.133 12.2656C420.008 11.1719 418.727 10.625 417.289 10.625H402.805V41H401.117V8.9375H417.289C419.195 8.9375 420.875 9.64844 422.328 11.0703C423.781 12.4766 424.508 14.0938 424.508 15.9219C424.508 18.1719 423.805 19.9766 422.398 21.3359C420.992 22.6953 419.289 23.375 417.289 23.375H407.117V21.6875ZM407.117 25.0625H417.289C419.727 25.0625 421.82 24.2109 423.57 22.5078C425.32 20.7891 426.195 18.5938 426.195 15.9219C426.195 13.625 425.297 11.6094 423.5 9.875C421.719 8.125 419.648 7.25 417.289 7.25H399.43V41H397.742V5.5625H417.289C419.148 5.5625 420.891 6.03906 422.516 6.99219C424.156 7.94531 425.461 9.22656 426.43 10.8359C427.398 12.4297 427.883 14.125 427.883 15.9219C427.883 19 426.836 21.5781 424.742 23.6562C422.664 25.7188 420.18 26.75 417.289 26.75H407.117V25.0625ZM407.117 28.4375H417.289C419.477 28.4375 421.508 27.8984 423.383 26.8203C425.258 25.7422 426.758 24.2422 427.883 22.3203C429.008 20.3828 429.57 18.25 429.57 15.9219C429.57 13.8125 429.008 11.8359 427.883 9.99219C426.773 8.13281 425.273 6.64844 423.383 5.53906C421.492 4.42969 419.461 3.875 417.289 3.875H396.055V41H394.367V2.1875H417.289C419.742 2.1875 422.047 2.82031 424.203 4.08594C426.359 5.33594 428.07 7.02344 429.336 9.14844C430.617 11.2578 431.258 13.5156 431.258 15.9219C431.258 18.7031 430.656 21.1484 429.453 23.2578C428.266 25.3672 426.648 27.0156 424.602 28.2031L428.961 41H427.18L423.008 29C422.383 29.25 421.906 29.4219 421.578 29.5156L425.492 41H423.711L419.891 29.9141C419.75 29.9453 419.25 30 418.391 30.0781L422.023 41H420.242L416.656 30.125H415.133L418.555 41H416.773L413.328 30.125H407.117V28.4375ZM406.18 41H404.492V12.3125H417.289C418.336 12.3125 419.234 12.6719 419.984 13.3906C420.75 14.0938 421.133 14.9375 421.133 15.9219C421.133 18.6406 419.852 20 417.289 20H407.117V18.3125H417.289C417.961 18.3125 418.484 18.1406 418.859 17.7969C419.25 17.4375 419.445 16.8125 419.445 15.9219C419.445 15.375 419.234 14.9219 418.812 14.5625C418.406 14.1875 417.898 14 417.289 14H406.18V41ZM451.625 29.6094L452.305 27.9219H458.07L458.75 29.6094H451.625ZM450.312 32.9844L450.969 31.2969H459.383L460.109 32.9844H450.312ZM449 36.3594L449.656 34.6719H460.719L461.422 36.3594H449ZM435.289 41H433.461L448.812 2.1875H450.641L465.969 41H464.164L449.727 4.46094L435.289 41ZM449.938 8.46875L450.898 10.625L438.898 41H437.094L449.938 8.46875ZM451.812 12.9219L452.703 15.2422L442.555 41H440.727L451.812 12.9219ZM453.594 17.5625L454.484 19.9297L446.164 41H444.359L453.594 17.5625ZM476.867 41H475.039L459.711 2.1875H461.516L476.867 41ZM457.883 2.1875L473.234 41H471.43L456.078 2.1875H457.883ZM454.25 2.1875L469.602 41H467.773L452.445 2.1875H454.25ZM0.804688 109.25V107.562H23.6797V109.25H0.804688ZM0.804688 112.625V110.938H23.6797V112.625H0.804688ZM0.804688 116V114.312H23.6797V116H0.804688ZM3.40625 106.625H1.4375C2.53125 105.141 3.60938 103.688 4.67188 102.266C5.73438 100.844 6.61719 99.6641 7.32031 98.7266C8.03906 97.7734 8.73438 96.8438 9.40625 95.9375C10.0781 95.0312 10.6172 94.3047 11.0234 93.7578C11.4453 93.2109 11.8438 92.6797 12.2188 92.1641C12.5938 91.6484 12.875 91.25 13.0625 90.9688C13.25 90.6719 13.4141 90.3906 13.5547 90.125C13.7109 89.8594 13.8125 89.6484 13.8594 89.4922C13.9062 89.3203 13.9297 89.1562 13.9297 89C13.9297 88.2812 13.6328 87.8203 13.0391 87.6172C12.4453 87.4141 11.3984 87.3125 9.89844 87.3125C7.46094 87.3125 5.02344 87.6328 2.58594 88.2734L2.23438 86.6562C2.625 86.4844 3.60938 86.2656 5.1875 86C6.78125 85.7188 8.3125 85.5781 9.78125 85.5781C10.6719 85.5781 11.4453 85.6328 12.1016 85.7422C12.7578 85.8359 13.3516 86.0078 13.8828 86.2578C14.4297 86.4922 14.8438 86.8438 15.125 87.3125C15.4062 87.7656 15.5469 88.3281 15.5469 89C15.5469 89.6719 15.2031 90.5312 14.5156 91.5781C13.8281 92.625 12.0625 95.0469 9.21875 98.8438C6.90625 101.922 4.96875 104.516 3.40625 106.625ZM7.22656 106.625H5.25781C11.0859 98.7812 14.3203 94.3984 14.9609 93.4766C16.2734 91.6016 17.0078 90.2656 17.1641 89.4688C17.2109 89.25 17.2344 89.0156 17.2344 88.7656C17.2344 85.5312 14.7812 83.9141 9.875 83.9141C8.375 83.9141 6.85156 84.0469 5.30469 84.3125C3.75781 84.5781 2.625 84.8438 1.90625 85.1094L1.57812 83.4922C4.25 82.6641 7.02344 82.25 9.89844 82.25C10.8984 82.25 11.8203 82.3203 12.6641 82.4609C13.5234 82.5859 14.3438 82.8047 15.125 83.1172C15.9062 83.4297 16.5703 83.8359 17.1172 84.3359C17.6641 84.8203 18.0938 85.4375 18.4062 86.1875C18.7344 86.9375 18.8984 87.7969 18.8984 88.7656C18.8984 89.7656 18.4062 91.0234 17.4219 92.5391C16.4375 94.0547 13.4922 98.1328 8.58594 104.773C7.99219 105.57 7.53906 106.188 7.22656 106.625ZM11.1406 106.625H9.17188C14.5 99.3438 17.7344 94.8125 18.875 93.0312C20.0156 91.2344 20.5859 89.7344 20.5859 88.5312C20.5859 87.0625 20.2969 85.7969 19.7188 84.7344C19.1562 83.6719 18.3594 82.8438 17.3281 82.25C16.3125 81.6562 15.1875 81.2266 13.9531 80.9609C12.7344 80.6953 11.375 80.5625 9.875 80.5625C6.98438 80.5625 4.10156 81 1.22656 81.875L0.875 80.1641C3.95312 79.2578 6.92969 78.8047 9.80469 78.8047C11.2109 78.8047 12.5156 78.9062 13.7188 79.1094C14.9219 79.3125 16.0547 79.6562 17.1172 80.1406C18.1953 80.6094 19.1016 81.2109 19.8359 81.9453C20.5859 82.6797 21.1797 83.6094 21.6172 84.7344C22.0547 85.8438 22.2734 87.1094 22.2734 88.5312C22.2734 89.5469 22.0312 90.5859 21.5469 91.6484C21.0781 92.6953 20.0938 94.2969 18.5938 96.4531C17.1094 98.6094 14.625 102 11.1406 106.625ZM15.1953 106.625H13.2266C16.5234 102.266 18.9062 98.9922 20.375 96.8047C21.8594 94.6016 22.8281 92.9375 23.2812 91.8125C23.7344 90.6719 23.9609 89.5 23.9609 88.2969C23.9609 86.7656 23.7266 85.3828 23.2578 84.1484C22.8047 82.8984 22.1562 81.8516 21.3125 81.0078C20.4844 80.1484 19.4844 79.4297 18.3125 78.8516C17.1406 78.2734 15.8516 77.8516 14.4453 77.5859C13.0547 77.3203 11.5469 77.1875 9.92188 77.1875C6.92188 77.1875 3.79688 77.6562 0.546875 78.5938L0.195312 76.9297C3.49219 75.9766 6.71875 75.5 9.875 75.5C12.2188 75.5 14.3359 75.7578 16.2266 76.2734C18.1328 76.7734 19.7891 77.5312 21.1953 78.5469C22.6172 79.5625 23.7109 80.8984 24.4766 82.5547C25.2578 84.2109 25.6484 86.125 25.6484 88.2969C25.6484 89.6719 25.4219 90.9688 24.9688 92.1875C24.5312 93.4062 23.5625 95.1328 22.0625 97.3672C20.5781 99.6016 18.2891 102.688 15.1953 106.625ZM40.9766 116H39.2891V77.1875H40.9766V116ZM37.6016 116H35.9141V77.1875H37.6016V116ZM34.2266 116H32.5391V77.1875H34.2266V116ZM30.8516 116H29.1641V77.1875H30.8516V116ZM53.3047 96.5938L63.2188 77.1875H65.0938L55.1797 96.5938L65.0938 116H63.2188L53.3047 96.5938ZM49.5312 96.5938L59.4453 77.1875H61.3203L51.4062 96.5938L61.3203 116H59.4453L49.5312 96.5938ZM45.7578 96.5938L55.6719 77.1875H57.5469L47.6328 96.5938L57.5469 116H55.6719L45.7578 96.5938ZM41.9609 96.5938L51.8984 77.1875H53.7734L43.8359 96.5938L53.7734 116H51.8984L41.9609 96.5938ZM67.9766 109.25V107.562H90.8516V109.25H67.9766ZM67.9766 112.625V110.938H90.8516V112.625H67.9766ZM67.9766 116V114.312H90.8516V116H67.9766ZM70.5781 106.625H68.6094C69.7031 105.141 70.7812 103.688 71.8438 102.266C72.9062 100.844 73.7891 99.6641 74.4922 98.7266C75.2109 97.7734 75.9062 96.8438 76.5781 95.9375C77.25 95.0312 77.7891 94.3047 78.1953 93.7578C78.6172 93.2109 79.0156 92.6797 79.3906 92.1641C79.7656 91.6484 80.0469 91.25 80.2344 90.9688C80.4219 90.6719 80.5859 90.3906 80.7266 90.125C80.8828 89.8594 80.9844 89.6484 81.0312 89.4922C81.0781 89.3203 81.1016 89.1562 81.1016 89C81.1016 88.2812 80.8047 87.8203 80.2109 87.6172C79.6172 87.4141 78.5703 87.3125 77.0703 87.3125C74.6328 87.3125 72.1953 87.6328 69.7578 88.2734L69.4062 86.6562C69.7969 86.4844 70.7812 86.2656 72.3594 86C73.9531 85.7188 75.4844 85.5781 76.9531 85.5781C77.8438 85.5781 78.6172 85.6328 79.2734 85.7422C79.9297 85.8359 80.5234 86.0078 81.0547 86.2578C81.6016 86.4922 82.0156 86.8438 82.2969 87.3125C82.5781 87.7656 82.7188 88.3281 82.7188 89C82.7188 89.6719 82.375 90.5312 81.6875 91.5781C81 92.625 79.2344 95.0469 76.3906 98.8438C74.0781 101.922 72.1406 104.516 70.5781 106.625ZM74.3984 106.625H72.4297C78.2578 98.7812 81.4922 94.3984 82.1328 93.4766C83.4453 91.6016 84.1797 90.2656 84.3359 89.4688C84.3828 89.25 84.4062 89.0156 84.4062 88.7656C84.4062 85.5312 81.9531 83.9141 77.0469 83.9141C75.5469 83.9141 74.0234 84.0469 72.4766 84.3125C70.9297 84.5781 69.7969 84.8438 69.0781 85.1094L68.75 83.4922C71.4219 82.6641 74.1953 82.25 77.0703 82.25C78.0703 82.25 78.9922 82.3203 79.8359 82.4609C80.6953 82.5859 81.5156 82.8047 82.2969 83.1172C83.0781 83.4297 83.7422 83.8359 84.2891 84.3359C84.8359 84.8203 85.2656 85.4375 85.5781 86.1875C85.9062 86.9375 86.0703 87.7969 86.0703 88.7656C86.0703 89.7656 85.5781 91.0234 84.5938 92.5391C83.6094 94.0547 80.6641 98.1328 75.7578 104.773C75.1641 105.57 74.7109 106.188 74.3984 106.625ZM78.3125 106.625H76.3438C81.6719 99.3438 84.9062 94.8125 86.0469 93.0312C87.1875 91.2344 87.7578 89.7344 87.7578 88.5312C87.7578 87.0625 87.4688 85.7969 86.8906 84.7344C86.3281 83.6719 85.5312 82.8438 84.5 82.25C83.4844 81.6562 82.3594 81.2266 81.125 80.9609C79.9062 80.6953 78.5469 80.5625 77.0469 80.5625C74.1562 80.5625 71.2734 81 68.3984 81.875L68.0469 80.1641C71.125 79.2578 74.1016 78.8047 76.9766 78.8047C78.3828 78.8047 79.6875 78.9062 80.8906 79.1094C82.0938 79.3125 83.2266 79.6562 84.2891 80.1406C85.3672 80.6094 86.2734 81.2109 87.0078 81.9453C87.7578 82.6797 88.3516 83.6094 88.7891 84.7344C89.2266 85.8438 89.4453 87.1094 89.4453 88.5312C89.4453 89.5469 89.2031 90.5859 88.7188 91.6484C88.25 92.6953 87.2656 94.2969 85.7656 96.4531C84.2812 98.6094 81.7969 102 78.3125 106.625ZM82.3672 106.625H80.3984C83.6953 102.266 86.0781 98.9922 87.5469 96.8047C89.0312 94.6016 90 92.9375 90.4531 91.8125C90.9062 90.6719 91.1328 89.5 91.1328 88.2969C91.1328 86.7656 90.8984 85.3828 90.4297 84.1484C89.9766 82.8984 89.3281 81.8516 88.4844 81.0078C87.6562 80.1484 86.6562 79.4297 85.4844 78.8516C84.3125 78.2734 83.0234 77.8516 81.6172 77.5859C80.2266 77.3203 78.7188 77.1875 77.0938 77.1875C74.0938 77.1875 70.9688 77.6562 67.7188 78.5938L67.3672 76.9297C70.6641 75.9766 73.8906 75.5 77.0469 75.5C79.3906 75.5 81.5078 75.7578 83.3984 76.2734C85.3047 76.7734 86.9609 77.5312 88.3672 78.5469C89.7891 79.5625 90.8828 80.8984 91.6484 82.5547C92.4297 84.2109 92.8203 86.125 92.8203 88.2969C92.8203 89.6719 92.5938 90.9688 92.1406 92.1875C91.7031 93.4062 90.7344 95.1328 89.2344 97.3672C87.75 99.6016 85.4609 102.688 82.3672 106.625ZM122.445 83.9375V85.625H105.219V101.984H103.531V85.625H101.844V101.984H100.156V85.625H98.4688V101.984H96.7812V83.9375H122.445ZM122.445 80.5625V82.25H96.7812V80.5625H122.445ZM122.445 77.1875V78.875H96.7812V77.1875H122.445ZM109.625 105.852C112.719 105.852 114.266 105.164 114.266 103.789C114.266 102.992 113.906 102.414 113.188 102.055C112.469 101.695 111.555 101.516 110.445 101.516C108.727 101.516 107.359 101.719 106.344 102.125V100.438C107.703 100.109 109.078 99.9453 110.469 99.9453C111.469 99.9453 112.359 100.062 113.141 100.297C113.938 100.531 114.602 100.945 115.133 101.539C115.68 102.133 115.953 102.883 115.953 103.789C115.953 105.039 115.359 105.977 114.172 106.602C113 107.227 111.484 107.539 109.625 107.539C106.734 107.539 104.531 107.07 103.016 106.133L104.375 105.102C105.391 105.602 107.141 105.852 109.625 105.852ZM109.625 109.227C111.938 109.227 113.852 108.75 115.367 107.797C116.883 106.844 117.641 105.508 117.641 103.789C117.641 102.039 116.984 100.695 115.672 99.7578C114.359 98.8047 112.766 98.3281 110.891 98.3281C109.453 98.3281 107.938 98.5078 106.344 98.8672V97.0859C108.266 96.8516 109.789 96.7344 110.914 96.7344C113.258 96.7344 115.242 97.3672 116.867 98.6328C118.508 99.8828 119.328 101.602 119.328 103.789C119.328 105.992 118.406 107.734 116.562 109.016C114.719 110.281 112.406 110.914 109.625 110.914C105.656 110.914 102.578 110.023 100.391 108.242L101.727 107.211C103.586 108.555 106.219 109.227 109.625 109.227ZM109.625 112.602C112.859 112.602 115.562 111.805 117.734 110.211C119.922 108.602 121.016 106.461 121.016 103.789C121.016 101.977 120.547 100.398 119.609 99.0547C118.688 97.7109 117.5 96.7188 116.047 96.0781C114.594 95.4375 112.992 95.1172 111.242 95.1172C109.508 95.1172 107.875 95.25 106.344 95.5156V93.8047C108.156 93.6016 109.805 93.5 111.289 93.5C113.367 93.5 115.273 93.9375 117.008 94.8125C118.758 95.6875 120.141 96.9141 121.156 98.4922C122.188 100.07 122.703 101.836 122.703 103.789C122.703 105.867 122.109 107.719 120.922 109.344C119.75 110.953 118.172 112.18 116.188 113.023C114.219 113.867 112.031 114.289 109.625 114.289C107.219 114.289 104.984 113.945 102.922 113.258C100.859 112.57 99.1328 111.602 97.7422 110.352L99.0547 109.297C100.305 110.359 101.844 111.18 103.672 111.758C105.516 112.32 107.5 112.602 109.625 112.602ZM109.625 115.977C111.641 115.977 113.547 115.688 115.344 115.109C117.156 114.516 118.727 113.695 120.055 112.648C121.383 111.602 122.438 110.312 123.219 108.781C124 107.25 124.391 105.586 124.391 103.789C124.391 102.008 124.031 100.352 123.312 98.8203C122.594 97.2891 121.641 96.0234 120.453 95.0234C119.266 94.0078 117.914 93.2188 116.398 92.6562C114.898 92.0938 113.352 91.8125 111.758 91.8125C110.945 91.8125 110.266 91.8359 109.719 91.8828C109.172 91.9141 108.555 91.9844 107.867 92.0938C107.18 92.1875 106.672 92.25 106.344 92.2812V90.5469C107.875 90.3281 109.711 90.2188 111.852 90.2188C113.711 90.2188 115.5 90.5469 117.219 91.2031C118.938 91.8438 120.453 92.7422 121.766 93.8984C123.078 95.0391 124.125 96.4688 124.906 98.1875C125.688 99.9062 126.078 101.773 126.078 103.789C126.078 105.82 125.641 107.711 124.766 109.461C123.906 111.195 122.734 112.664 121.25 113.867C119.766 115.055 118.016 115.984 116 116.656C114 117.328 111.875 117.664 109.625 117.664C106.703 117.664 103.977 117.203 101.445 116.281C98.9297 115.375 96.8203 114.102 95.1172 112.461L96.4766 111.453C98.0234 112.891 99.9375 114.008 102.219 114.805C104.516 115.586 106.984 115.977 109.625 115.977Z" fill="#F5F5F5"/>
</svg>
